<?xml version="1.0" standalone="no"?>
<!DOCTYPE svg PUBLIC "-//W3C//DTD SVG 20010904//EN"
 "http://www.w3.org/TR/2001/REC-SVG-20010904/DTD/svg10.dtd">
<svg version="1.0" xmlns="http://www.w3.org/2000/svg"
 width="204.000000pt" height="192.000000pt" viewBox="0 0 204.000000 192.000000"
 preserveAspectRatio="xMidYMid meet">

<g transform="translate(0.000000,192.000000) scale(0.100000,-0.100000)"
fill="#000000" stroke="none">
<path d="M1370 1759 c-102 -27 -239 -63 -305 -79 -104 -27 -124 -35 -152 -65
-24 -25 -33 -44 -33 -69 0 -30 53 -248 134 -546 17 -62 34 -103 50 -118 20
-21 22 -28 14 -56 -8 -26 1 -71 52 -266 35 -129 72 -270 83 -313 22 -86 55
-131 106 -142 19 -4 70 5 143 24 62 17 190 51 283 76 94 24 187 49 207 55 39
11 72 48 83 91 4 16 -17 115 -59 275 -94 358 -102 383 -123 407 -15 16 -19 32
-16 62 3 27 -13 106 -51 250 -96 368 -105 397 -123 418 -19 21 -73 47 -95 46
-7 0 -96 -23 -198 -50z m229 -28 c7 -5 26 -55 42 -112 51 -180 129 -487 129
-508 0 -38 -2 -39 -573 -189 -90 -23 -82 -39 -201 419 -48 183 -51 205 -38
227 5 7 121 42 258 78 137 36 269 71 294 79 55 16 71 17 89 6z m204 -753 c8
-13 35 -99 59 -193 25 -93 60 -225 78 -292 37 -141 34 -156 -33 -173 -23 -6
-64 -17 -92 -25 -27 -8 -146 -39 -263 -70 -221 -57 -244 -59 -256 -18 -3 10
-26 97 -51 193 -26 96 -60 224 -76 284 -30 112 -30 139 0 155 9 6 130 39 267
75 137 36 263 70 279 75 50 15 74 12 88 -11z"/>
<path d="M1451 1614 c-27 -35 -27 -65 2 -92 27 -26 64 -28 95 -6 31 21 31 87
0 108 -34 24 -73 20 -97 -10z"/>
<path d="M1325 1398 c-28 -16 -35 -28 -35 -64 0 -39 27 -64 68 -64 58 0 90 76
49 117 -19 18 -60 24 -82 11z"/>
<path d="M1172 1134 c-16 -11 -22 -25 -22 -54 0 -67 68 -93 115 -45 30 30 31
54 4 89 -24 30 -63 34 -97 10z"/>
<path d="M1652 884 c-15 -11 -22 -25 -22 -50 0 -67 73 -99 118 -51 28 30 28
68 -1 95 -27 26 -64 28 -95 6z"/>
<path d="M1262 777 c-44 -46 -14 -117 48 -117 63 0 93 75 47 118 -30 28 -68
28 -95 -1z"/>
<path d="M1746 488 c-24 -34 -20 -73 10 -97 15 -12 34 -21 44 -21 30 0 70 39
70 69 0 45 -26 71 -70 71 -29 0 -43 -6 -54 -22z"/>
<path d="M1360 388 c-59 -64 38 -160 100 -98 26 26 26 81 2 103 -26 24 -77 21
-102 -5z"/>
<path d="M95 1733 c-35 -9 -63 -33 -79 -68 -14 -28 -16 -81 -16 -347 0 -282 2
-317 18 -349 17 -34 17 -36 0 -65 -16 -26 -18 -59 -18 -347 0 -350 2 -366 59
-400 26 -15 66 -17 366 -17 l337 0 33 33 c24 24 35 46 40 78 3 24 5 177 3 339
-3 257 -5 299 -20 322 -16 24 -16 27 0 49 15 21 17 61 17 354 0 304 -1 332
-19 361 -36 59 -32 59 -381 61 -176 0 -329 -1 -340 -4z m641 -71 c31 -20 34
-55 34 -351 0 -288 -1 -302 -20 -321 -19 -19 -33 -20 -332 -20 -276 0 -314 2
-330 17 -17 15 -18 39 -18 330 0 300 1 314 20 333 19 19 33 20 328 20 169 0
312 -4 318 -8z m18 -784 c24 -33 24 -613 0 -646 -15 -22 -16 -22 -334 -22
-276 0 -321 2 -334 16 -14 13 -16 57 -16 326 0 276 2 314 17 330 15 17 39 18
334 18 317 0 318 0 333 -22z"/>
<path d="M176 1569 c-50 -40 -21 -119 44 -119 35 0 70 34 70 67 0 29 -42 73
-68 73 -11 0 -31 -9 -46 -21z"/>
<path d="M576 1569 c-50 -40 -21 -119 44 -119 65 0 94 79 44 119 -15 12 -34
21 -44 21 -10 0 -29 -9 -44 -21z"/>
<path d="M176 1169 c-50 -40 -24 -119 40 -119 68 0 97 68 49 115 -30 30 -54
31 -89 4z"/>
<path d="M576 1169 c-50 -40 -24 -119 40 -119 69 0 101 78 48 119 -15 12 -34
21 -44 21 -10 0 -29 -9 -44 -21z"/>
<path d="M170 800 c-29 -29 -26 -74 6 -99 35 -27 59 -26 89 4 46 45 19 115
-45 115 -17 0 -39 -9 -50 -20z"/>
<path d="M570 800 c-29 -29 -26 -74 6 -99 15 -12 34 -21 44 -21 10 0 29 9 44
21 50 40 21 119 -44 119 -17 0 -39 -9 -50 -20z"/>
<path d="M370 590 c-43 -43 -11 -120 48 -120 36 0 72 37 72 73 0 36 -33 67
-70 67 -17 0 -39 -9 -50 -20z"/>
<path d="M170 400 c-29 -29 -26 -74 6 -99 35 -27 59 -26 89 4 46 45 19 115
-45 115 -17 0 -39 -9 -50 -20z"/>
<path d="M566 398 c-24 -34 -20 -73 10 -97 34 -26 54 -26 88 0 53 41 21 119
-48 119 -25 0 -39 -7 -50 -22z"/>
</g>
</svg>
